<?xml version="1.0" encoding="utf-8"?>
<svg viewBox="10.497 7.554 44.254 57.928" xmlns="http://www.w3.org/2000/svg">
  <path d="M 43.398 10.089 C 45.148 10.914 46.583 11.648 47.754 12.333 C 48.925 13.019 49.831 13.656 50.523 14.289 C 51.194 14.945 51.663 15.583 51.964 16.263 C 52.265 16.943 52.398 17.665 52.398 18.489 C 52.398 19.177 52.327 19.789 52.194 20.33 C 52.062 20.872 51.869 21.343 51.626 21.749 C 51.354 22.136 51.035 22.453 50.663 22.705 C 50.29 22.956 49.863 23.141 49.373 23.264 C 48.381 23.451 47.164 23.37 45.733 23 C 44.302 22.629 42.656 21.968 40.804 20.992 C 38.154 19.592 35.606 18.789 33.207 18.613 C 30.808 18.436 28.558 18.885 26.503 19.987 C 25.751 20.364 25.115 20.749 24.6 21.144 C 24.085 21.539 23.691 21.943 23.426 22.359 C 23.125 22.752 22.95 23.174 22.903 23.598 C 22.856 24.022 22.937 24.448 23.148 24.851 C 23.471 25.699 24.286 26.521 25.544 27.3 C 26.802 28.079 28.504 28.815 30.603 29.49 C 31.612 29.803 32.51 30.087 33.208 30.384 C 33.907 30.68 34.257 30.84 34.471 31.202 L 34.89 31.946 L 34.565 32.84 L 33.942 33.287 L 33.022 33.585 C 33.022 33.585 32.332 33.377 31.312 33.018 C 30.291 32.659 28.939 32.148 27.614 31.541 C 26.282 30.928 24.971 30.144 23.835 29.374 C 22.698 28.604 21.735 27.848 21.098 27.289 C 20.824 27.048 20.513 26.358 20.265 25.459 C 20.018 24.56 19.76 23.453 19.74 22.378 C 19.989 21.508 20.44 20.571 20.941 19.722 C 21.442 18.873 22.067 18.186 22.812 17.671 C 23.572 17.166 24.432 16.673 25.367 16.342 C 26.302 16.01 27.313 15.765 28.376 15.61 C 30.504 15.319 32.835 15.377 35.159 15.79 C 37.484 16.202 39.801 16.968 41.902 18.091 C 43.153 18.742 44.247 19.236 45.183 19.563 C 46.12 19.889 46.9 20.048 47.524 20.026 C 47.835 20.039 48.118 20.004 48.357 19.918 C 48.597 19.833 48.793 19.698 48.93 19.509 C 49.104 19.356 49.221 19.144 49.295 18.886 C 49.368 18.629 49.398 18.326 49.398 17.989 C 49.398 17.685 49.216 17.339 48.888 16.968 C 48.56 16.598 48.085 16.204 47.5 15.805 C 46.916 15.396 46.218 14.976 45.444 14.56 C 44.669 14.144 43.817 13.732 42.923 13.339 C 41.138 12.55 39.182 11.839 37.334 11.324 C 35.486 10.81 33.747 10.492 32.394 10.489 C 29.968 10.516 27.689 10.891 25.639 11.569 C 23.59 12.248 21.769 13.228 20.261 14.464 C 18.729 15.674 17.514 17.142 16.681 18.802 C 15.848 20.463 15.398 22.314 15.398 24.289 C 15.398 26.014 15.644 27.526 16.224 28.866 C 16.803 30.207 17.715 31.376 19.048 32.414 C 20.353 33.485 22.067 34.441 24.254 35.349 C 26.441 36.256 29.101 37.115 32.301 37.99 C 35.001 38.715 37.292 39.436 39.212 40.171 C 41.133 40.907 42.682 41.657 43.897 42.439 C 45.097 43.245 45.972 44.07 46.547 44.949 C 47.123 45.829 47.398 46.763 47.398 47.789 C 47.398 48.966 46.975 50.155 46.245 51.282 C 45.515 52.409 44.477 53.474 43.248 54.402 C 42.006 55.313 40.641 56.023 39.151 56.536 C 37.661 57.049 36.045 57.366 34.298 57.489 C 33.702 57.532 33.33 57.313 33.11 57.086 C 32.889 56.859 32.82 56.623 32.827 56.631 C 32.827 56.631 32.761 56.352 32.818 55.999 C 32.876 55.647 33.057 55.221 33.552 54.929 C 35.295 54.412 35.835 54.226 36.226 54.095 C 36.617 53.963 36.86 53.886 38.009 53.586 C 39.459 53.188 40.553 52.711 41.399 52.097 C 42.245 51.483 42.843 50.732 43.3 49.785 C 43.525 49.284 43.687 48.811 43.766 48.365 C 43.845 47.919 43.841 47.499 43.731 47.104 C 43.661 46.698 43.488 46.312 43.217 45.943 C 42.946 45.574 42.576 45.223 42.11 44.888 C 41.198 44.192 39.883 43.543 38.115 42.892 C 36.347 42.241 34.126 41.59 31.401 40.889 C 25.253 39.291 20.905 37.566 17.892 35.364 C 14.88 33.163 13.203 30.486 12.397 26.983 C 11.847 24.478 11.945 22.106 12.681 19.873 C 13.418 17.639 14.792 15.545 16.793 13.594 C 18.471 11.967 20.386 10.665 22.461 9.69 C 24.536 8.716 26.77 8.069 29.085 7.752 C 31.404 7.456 33.806 7.489 36.216 7.872 C 38.627 8.256 41.046 8.988 43.398 10.089 Z M 47.094 35.086 C 49.001 36.352 50.424 37.55 51.492 38.703 C 52.559 39.856 53.271 40.963 53.752 42.044 C 54.206 43.14 54.486 44.204 54.63 45.269 C 54.774 46.333 54.782 47.397 54.691 48.492 C 54.579 49.845 53.899 51.902 52.962 53.946 C 52.025 55.99 50.232 58.385 49.02 59.622 C 46.301 62.398 42.797 64.089 38.049 64.955 C 33.301 65.82 28.201 65.637 24.3 64.29 C 21.202 63.242 17.98 61.539 15.442 59.758 C 12.904 57.977 11.051 56.117 10.69 54.753 C 10.495 53.899 10.453 53.129 10.539 52.441 C 10.625 51.753 10.84 51.146 11.16 50.615 C 11.52 50.109 11.974 49.682 12.547 49.355 C 13.119 49.028 13.811 48.801 14.648 48.696 C 15.315 48.621 16.511 48.908 17.926 49.407 C 19.341 49.906 20.977 50.617 22.523 51.389 C 23.298 51.777 24.052 52.18 24.748 52.58 C 25.444 52.98 26.082 53.377 26.623 53.751 C 26.822 53.889 26.98 54.129 27.048 54.405 C 27.115 54.681 27.091 54.994 26.924 55.277 C 26.804 55.481 26.798 55.678 26.676 55.82 C 26.555 55.962 26.319 56.048 25.739 56.028 C 25.043 56.005 24.346 55.807 23.566 55.459 C 22.785 55.111 21.923 54.613 20.898 53.988 C 19.909 53.389 19.003 52.914 18.188 52.554 C 17.373 52.194 16.65 51.949 16.027 51.81 C 15.414 51.649 14.87 51.587 14.446 51.63 C 14.022 51.673 13.718 51.82 13.585 52.078 C 13.472 52.167 13.404 52.297 13.378 52.447 C 13.352 52.598 13.368 52.77 13.424 52.944 C 13.454 53.125 13.522 53.321 13.627 53.531 C 13.732 53.741 13.874 53.965 14.05 54.2 C 14.392 54.678 14.879 55.207 15.519 55.776 C 16.16 56.345 16.952 56.954 17.903 57.592 C 20.78 59.568 23.911 60.931 27.071 61.699 C 30.231 62.467 33.42 62.641 36.411 62.239 C 39.405 61.873 42.198 60.926 44.57 59.439 C 46.941 57.953 48.89 55.925 50.194 53.396 C 51.17 51.517 51.716 49.694 51.829 47.971 C 51.941 46.248 51.62 44.623 50.86 43.139 C 50.151 41.63 49.012 40.255 47.474 39.039 C 45.937 37.823 44.001 36.765 41.699 35.889 C 40.649 35.489 39.93 35.248 39.346 34.982 C 38.763 34.717 38.315 34.429 37.806 33.934 C 37.738 33.196 37.73 33.095 37.762 33.048 C 37.795 33 37.793 32.708 37.885 32.182 C 37.983 31.626 38.415 31.728 38.761 31.671 C 39.108 31.615 39.444 31.698 39.496 31.702 C 39.825 31.726 40.068 31.775 40.317 31.845 C 40.567 31.915 40.822 32.005 41.173 32.109 C 41.947 32.338 42.839 32.692 43.832 33.184 C 44.825 33.676 45.918 34.306 47.094 35.086 Z" style="paint-order: stroke markers; stroke-width: 0px; stroke-miterlimit: 1; stroke-linejoin: round; stroke-linecap: round;" stroke="none"/>
</svg>